<svg width="228" height="228" viewBox="0 0 228 228" fill="none" xmlns="http://www.w3.org/2000/svg">
<g filter="url(#filter0_d_2861_415)">
<rect x="50" y="50" width="128" height="128" rx="64" fill="#006B5A" shape-rendering="crispEdges"/>
<path d="M97.7354 139V128.25C95.3604 126.083 93.5166 123.552 92.2041 120.656C90.8916 117.76 90.2354 114.708 90.2354 111.5C90.2354 105.25 92.4229 99.9375 96.7979 95.5625C101.173 91.1875 106.485 89 112.735 89C117.944 89 122.558 90.5312 126.579 93.5938C130.6 96.6562 133.215 100.646 134.423 105.562L137.673 118.375C137.881 119.167 137.735 119.885 137.235 120.531C136.735 121.177 136.069 121.5 135.235 121.5H130.235V129C130.235 130.375 129.746 131.552 128.767 132.531C127.787 133.51 126.61 134 125.235 134H120.235V139H115.235V129H125.235V116.5H131.985L129.61 106.812C128.652 103.021 126.61 99.9375 123.485 97.5625C120.36 95.1875 116.777 94 112.735 94C107.902 94 103.777 95.6875 100.36 99.0625C96.9437 102.438 95.2354 106.542 95.2354 111.375C95.2354 113.875 95.7458 116.25 96.7666 118.5C97.7874 120.75 99.2354 122.75 101.11 124.5L102.735 126V139H97.7354ZM110.235 121.5H115.235L115.61 118.375C115.944 118.25 116.246 118.104 116.517 117.938C116.787 117.771 117.027 117.583 117.235 117.375L120.11 118.625L122.61 114.375L120.11 112.5C120.194 112.167 120.235 111.833 120.235 111.5C120.235 111.167 120.194 110.833 120.11 110.5L122.61 108.625L120.11 104.375L117.235 105.625C117.027 105.417 116.787 105.229 116.517 105.062C116.246 104.896 115.944 104.75 115.61 104.625L115.235 101.5H110.235L109.86 104.625C109.527 104.75 109.225 104.896 108.954 105.062C108.683 105.229 108.444 105.417 108.235 105.625L105.36 104.375L102.86 108.625L105.36 110.5C105.277 110.833 105.235 111.167 105.235 111.5C105.235 111.833 105.277 112.167 105.36 112.5L102.86 114.375L105.36 118.625L108.235 117.375C108.444 117.583 108.683 117.771 108.954 117.938C109.225 118.104 109.527 118.25 109.86 118.375L110.235 121.5ZM112.735 115.25C111.694 115.25 110.808 114.885 110.079 114.156C109.35 113.427 108.985 112.542 108.985 111.5C108.985 110.458 109.35 109.573 110.079 108.844C110.808 108.115 111.694 107.75 112.735 107.75C113.777 107.75 114.662 108.115 115.392 108.844C116.121 109.573 116.485 110.458 116.485 111.5C116.485 112.542 116.121 113.427 115.392 114.156C114.662 114.885 113.777 115.25 112.735 115.25Z" fill="white"/>
</g>
<defs>
<filter id="filter0_d_2861_415" x="0" y="0" width="228" height="228" filterUnits="userSpaceOnUse" color-interpolation-filters="sRGB">
<feFlood flood-opacity="0" result="BackgroundImageFix"/>
<feColorMatrix in="SourceAlpha" type="matrix" values="0 0 0 0 0 0 0 0 0 0 0 0 0 0 0 0 0 0 127 0" result="hardAlpha"/>
<feOffset/>
<feGaussianBlur stdDeviation="25"/>
<feComposite in2="hardAlpha" operator="out"/>
<feColorMatrix type="matrix" values="0 0 0 0 0 0 0 0 0 0.419608 0 0 0 0 0.352941 0 0 0 0.5 0"/>
<feBlend mode="normal" in2="BackgroundImageFix" result="effect1_dropShadow_2861_415"/>
<feBlend mode="normal" in="SourceGraphic" in2="effect1_dropShadow_2861_415" result="shape"/>
</filter>
</defs>
</svg>
