<svg width="25" height="25" viewBox="0 0 25 25" fill="none" xmlns="http://www.w3.org/2000/svg">
<path d="M14.375 25C12.125 25 10.2083 24.2083 8.625 22.625C7.04167 21.0417 6.25 19.125 6.25 16.875V16.1562C4.45833 15.8646 2.96875 15.026 1.78125 13.6406C0.59375 12.2552 0 10.625 0 8.75V1.25H3.75V0H6.25V5H3.75V3.75H2.5V8.75C2.5 10.125 2.98958 11.3021 3.96875 12.2812C4.94792 13.2604 6.125 13.75 7.5 13.75C8.875 13.75 10.0521 13.2604 11.0312 12.2812C12.0104 11.3021 12.5 10.125 12.5 8.75V3.75H11.25V5H8.75V0H11.25V1.25H15V8.75C15 10.625 14.4062 12.2552 13.2188 13.6406C12.0312 15.026 10.5417 15.8646 8.75 16.1562V16.875C8.75 18.4375 9.29688 19.7656 10.3906 20.8594C11.4844 21.9531 12.8125 22.5 14.375 22.5C15.9375 22.5 17.2656 21.9531 18.3594 20.8594C19.4531 19.7656 20 18.4375 20 16.875V14.7812C19.2708 14.5312 18.6719 14.0833 18.2031 13.4375C17.7344 12.7917 17.5 12.0625 17.5 11.25C17.5 10.2083 17.8646 9.32292 18.5938 8.59375C19.3229 7.86458 20.2083 7.5 21.25 7.5C22.2917 7.5 23.1771 7.86458 23.9062 8.59375C24.6354 9.32292 25 10.2083 25 11.25C25 12.0625 24.7656 12.7917 24.2969 13.4375C23.8281 14.0833 23.2292 14.5312 22.5 14.7812V16.875C22.5 19.125 21.7083 21.0417 20.125 22.625C18.5417 24.2083 16.625 25 14.375 25ZM21.25 12.5C21.6042 12.5 21.901 12.3802 22.1406 12.1406C22.3802 11.901 22.5 11.6042 22.5 11.25C22.5 10.8958 22.3802 10.599 22.1406 10.3594C21.901 10.1198 21.6042 10 21.25 10C20.8958 10 20.599 10.1198 20.3594 10.3594C20.1198 10.599 20 10.8958 20 11.25C20 11.6042 20.1198 11.901 20.3594 12.1406C20.599 12.3802 20.8958 12.5 21.25 12.5Z" fill="#87F6DC"/>
</svg>
