<svg width="56" height="56" viewBox="0 0 56 56" fill="none" xmlns="http://www.w3.org/2000/svg">
<rect width="56" height="56" rx="16" fill="#F0F9F6"/>
<path d="M26.6875 35.9375L22.25 31.5L24.0625 29.6875L26.6875 32.3125L31.9375 27.0625L33.75 28.875L26.6875 35.9375ZM19.25 40.5C18.5625 40.5 17.974 40.2552 17.4844 39.7656C16.9948 39.276 16.75 38.6875 16.75 38V20.5C16.75 19.8125 16.9948 19.224 17.4844 18.7344C17.974 18.2448 18.5625 18 19.25 18H20.5V15.5H23V18H33V15.5H35.5V18H36.75C37.4375 18 38.026 18.2448 38.5156 18.7344C39.0052 19.224 39.25 19.8125 39.25 20.5V38C39.25 38.6875 39.0052 39.276 38.5156 39.7656C38.026 40.2552 37.4375 40.5 36.75 40.5H19.25ZM19.25 38H36.75V25.5H19.25V38ZM19.25 23H36.75V20.5H19.25V23ZM19.25 23V20.5V23Z" fill="#006B5A"/>
</svg>
