<svg width="56" height="56" viewBox="0 0 56 56" fill="none" xmlns="http://www.w3.org/2000/svg">
<rect width="56" height="56" rx="16" fill="#EFF6FF"/>
<path d="M26.75 34.25H36.75V33.5625C36.75 32.625 36.2917 31.8802 35.375 31.3281C34.4583 30.776 33.25 30.5 31.75 30.5C30.25 30.5 29.0417 30.776 28.125 31.3281C27.2083 31.8802 26.75 32.625 26.75 33.5625V34.25ZM31.75 29.25C32.4375 29.25 33.026 29.0052 33.5156 28.5156C34.0052 28.026 34.25 27.4375 34.25 26.75C34.25 26.0625 34.0052 25.474 33.5156 24.9844C33.026 24.4948 32.4375 24.25 31.75 24.25C31.0625 24.25 30.474 24.4948 29.9844 24.9844C29.4948 25.474 29.25 26.0625 29.25 26.75C29.25 27.4375 29.4948 28.026 29.9844 28.5156C30.474 29.0052 31.0625 29.25 31.75 29.25ZM18 38C17.3125 38 16.724 37.7552 16.2344 37.2656C15.7448 36.776 15.5 36.1875 15.5 35.5V20.5C15.5 19.8125 15.7448 19.224 16.2344 18.7344C16.724 18.2448 17.3125 18 18 18H25.5L28 20.5H38C38.6875 20.5 39.276 20.7448 39.7656 21.2344C40.2552 21.724 40.5 22.3125 40.5 23V35.5C40.5 36.1875 40.2552 36.776 39.7656 37.2656C39.276 37.7552 38.6875 38 38 38H18ZM18 35.5H38V23H26.9688L24.4688 20.5H18V35.5ZM18 35.5V20.5V23V35.5Z" fill="#2563EB"/>
</svg>
